<?xml version="1.0" encoding="UTF-8"?>
<svg id="Capa_2" data-name="Capa 2" xmlns="http://www.w3.org/2000/svg" viewBox="0 0 312.49 143.77">
  <defs>
    <style>
      .cls-1 {
        fill: #fff;
      }
    </style>
  </defs>
  <g id="Capa_1-2" data-name="Capa 1">
    <g>
      <polygon class="cls-1" points="200 123.15 179.39 123.17 179.39 134.71 202.85 134.71 202.85 142.65 170.68 142.64 170.68 98.04 202.79 98.04 202.79 105.89 179.39 105.89 179.39 115.33 199.99 115.32 200 123.15"/>
      <g>
        <path class="cls-1" d="M115.96,133.44l-16.32-.04-3.22,9.25h-9.82s15.92-44.6,15.92-44.6l10.74-.02,15.73,44.63h-10.16s-2.86-9.21-2.86-9.21ZM113.32,125.61l-5.53-17.41-5.7,17.47,11.23-.06Z"/>
        <path class="cls-1" d="M142.17,134.13c3.34,2.13,7.65,2.09,10.97.15,2.52-1.48,3.82-4.08,4.35-6.92l9.45-.03c-.49,2.64-1.31,5.06-2.62,7.38-2.55,4.63-6.86,7.65-12.07,8.65-9.48,1.61-18.47-1.48-22.63-10.44-3.29-7.09-3.33-17.43-.18-24.6,2.53-5.76,7.46-9.85,13.67-11.04,11.27-2.16,22.51,3.28,23.85,15.36h-9.47c-.42-1.8-1.05-3.46-2.25-4.87-1.5-1.68-3.57-2.51-5.81-2.72-7.58-.85-11.77,4.63-12.56,11.88-.64,5.86.12,13.89,5.3,17.2Z"/>
        <polygon class="cls-1" points="89.41 115.98 89.42 123.87 69.81 123.87 69.81 142.65 60.49 142.65 60.49 98.04 92.15 98.04 92.16 105.89 69.81 105.89 69.81 115.98 89.41 115.98"/>
      </g>
      <g>
        <path class="cls-1" d="M269.95,142.65l-.05-41.09c-.03-30.48-25.06-55.26-55.53-55.68h-5.5S208.88,0,208.88,0c23.78-.12,46.64,8.07,64.99,22.86,23.88,19.31,38.19,48.25,38.56,79.06l.06,40.72h-42.54Z"/>
        <path class="cls-1" d="M233.44,142.65l-.08-31.82c-.41-9.02-7.64-16-16.65-15.99l-7.85.06v-47.3s4.39.05,4.39.05c29.8-.14,54.44,23.85,54.85,53.7l.07,41.31h-34.74Z"/>
        <g>
          <path class="cls-1" d="M125.71,93.51h-10.37c-1.4-4.68-.6-9.15-1.29-13.65-.28-1.6-1.28-2.83-2.83-3.29-1.1-.33-2.24-.49-3.42-.49h-10.27s0,17.43,0,17.43h-9.12s0-44.5,0-44.5l23.83.08c3.56.01,6.73,1.29,9.24,3.68,3.61,3.89,4.47,9.6,2.23,14.4-1.11,2.39-2.97,3.99-5.55,5.08,5.56,2.11,5.52,6.59,5.56,12.02l.26,5.83c.05,1.04.67,1.9,1.71,2.17l.02,1.26ZM114.06,66.97c1.18-1.27,1.52-2.93,1.46-4.57.07-3.15-2.17-5.41-5.33-5.6l-12.67-.06v11.94s11.82-.03,11.82-.03c1.73-.13,3.39-.44,4.72-1.68Z"/>
          <g>
            <polygon class="cls-1" points="36.42 93.67 27.08 93.68 8.88 62.04 8.73 93.68 0 93.68 0 49.07 9.9 49.09 27.51 79.92 27.64 49.07 36.43 49.07 36.42 93.67"/>
            <path class="cls-1" d="M82.56,80.66c-3.7,12.63-17.91,16.97-29.3,12.35-5.52-2.24-9.47-6.71-11.11-12.49-1.72-6.03-1.71-12.52.06-18.54,3.69-12.56,17.9-16.89,29.24-12.3,5.53,2.24,9.51,6.7,11.16,12.48,1.72,6.02,1.72,12.49-.04,18.5ZM62.19,86.91c5.17.07,9.4-2.98,11.04-7.85s1.68-10.52-.02-15.47c-1.66-4.83-5.9-7.82-10.95-7.79-4.96.03-9.1,2.99-10.73,7.75-1.71,5.01-1.7,10.67.03,15.68,1.62,4.68,5.64,7.61,10.62,7.67Z"/>
          </g>
        </g>
        <path class="cls-1" d="M231.56,111.35l.07,31.33h-22.76s0-46,0-46l7.86-.04c8.15-.04,14.81,6.38,14.83,14.7Z"/>
        <polygon class="cls-1" points="202.8 93.63 193.45 93.69 193.46 73.71 176.08 73.7 176.08 93.67 166.75 93.67 166.75 49.07 176.08 49.07 176.08 65.92 193.45 65.91 193.46 49.08 202.8 49.08 202.8 93.63"/>
        <polygon class="cls-1" points="149.92 93.63 140.53 93.69 140.53 56.98 127.04 56.97 127.04 49.07 163.37 49.07 163.37 56.97 149.91 56.98 149.92 93.63"/>
        <g>
          <polygon class="cls-1" points="165.54 44.64 156.15 44.65 156.15 24.65 138.78 24.65 138.78 44.65 129.47 44.64 129.47 .06 138.78 .05 138.78 16.94 156.15 16.94 156.15 .05 165.54 .05 165.54 44.64"/>
          <polygon class="cls-1" points="200 25.25 179.39 25.28 179.39 36.77 202.85 36.76 202.85 44.65 170.68 44.65 170.69 .05 202.8 .05 202.79 7.96 179.39 7.96 179.39 17.33 199.99 17.33 200 25.25"/>
          <polygon class="cls-1" points="113.55 44.65 104.22 44.65 104.23 7.96 90.75 7.96 90.78 .05 127.06 .05 127.06 7.96 113.54 7.96 113.55 44.65"/>
        </g>
      </g>
      <g>
        <path class="cls-1" d="M52.84,136.42c0,3.25-2.64,5.89-5.9,5.89s-5.9-2.64-5.9-5.89,2.64-5.89,5.9-5.89,5.9,2.64,5.9,5.89ZM51.92,136.42c0-2.78-2.25-5.03-5.04-5.03s-5.04,2.25-5.04,5.03,2.25,5.03,5.04,5.03,5.04-2.25,5.04-5.03Z"/>
        <path class="cls-1" d="M48.24,139.31l-.32-2.11c-.4-.51-1.39-.36-2.05-.25l-.03,2.38h-1.29s0-6.32,0-6.32l3.33.04c.8.01,1.38.5,1.63,1.08.33.76.15,1.49-.55,2.1l.48,1.11c.04.74-.08,1.35.33,1.97-.5.08-.86.11-1.53,0Z"/>
      </g>
    </g>
  </g>
</svg>